<?xml version="1.0" standalone="no"?>
<!DOCTYPE svg PUBLIC "-//W3C//DTD SVG 20010904//EN"
 "http://www.w3.org/TR/2001/REC-SVG-20010904/DTD/svg10.dtd">
<svg version="1.0" xmlns="http://www.w3.org/2000/svg"
 width="960.000000pt" height="960.000000pt" viewBox="0 0 960.000000 960.000000"
 preserveAspectRatio="xMidYMid meet">
<metadata>
Created by potrace 1.14, written by Peter Selinger 2001-2017
</metadata>
<g transform="translate(0.000000,960.000000) scale(0.100000,-0.100000)"
fill="#000000" stroke="none">
<path d="M899 6861 c-2 -5 -26 -12 -54 -13 -27 -2 -56 -7 -64 -12 -10 -6 -12
-5 -7 3 5 8 -2 11 -24 9 -17 -1 -34 -7 -37 -12 -4 -5 -1 -6 7 -1 9 5 11 4 6
-3 -5 -9 -13 -9 -26 -2 -12 7 -20 6 -22 0 -2 -6 -14 -12 -27 -15 -12 -2 -30
-10 -39 -17 -13 -11 -14 -11 -8 0 7 11 4 11 -15 0 -13 -7 -27 -17 -31 -23 -5
-6 -8 -5 -8 3 0 20 -18 14 -25 -9 -5 -14 -10 -18 -14 -10 -9 14 -37 5 -45 -15
-3 -9 -10 -12 -16 -9 -5 3 -10 2 -10 -4 0 -6 -7 -7 -17 -4 -11 4 -14 3 -9 -5
5 -8 2 -10 -8 -6 -11 4 -16 0 -16 -12 0 -14 -3 -15 -8 -6 -7 9 -16 6 -38 -15
-16 -14 -31 -26 -34 -26 -3 1 -4 -3 -3 -8 2 -4 -4 -6 -12 -3 -8 4 -15 1 -15
-6 0 -6 -5 -8 -10 -5 -12 7 -42 -20 -32 -29 3 -4 -1 -4 -11 0 -10 3 -17 1 -17
-6 0 -6 -4 -8 -10 -5 -9 6 -15 -8 -11 -29 1 -5 -5 -6 -13 -3 -9 4 -13 0 -12
-11 3 -17 66 -30 66 -13 0 5 9 9 20 8 11 -1 20 -5 20 -11 0 -5 8 -2 18 6 9 9
25 14 35 13 9 -2 17 1 17 6 0 5 11 4 25 -1 23 -9 29 -6 27 11 -1 3 13 7 31 8
18 2 40 3 50 4 9 1 17 4 17 7 0 3 13 5 30 6 19 1 27 -3 23 -10 -5 -8 -3 -8 8
0 15 12 58 12 77 0 7 -4 12 -4 12 1 0 4 30 7 67 7 85 -2 85 -2 80 -11 -3 -5
13 -8 35 -9 22 0 43 -5 46 -10 4 -5 13 -10 20 -11 6 -2 18 -4 25 -5 6 -2 15
-7 19 -13 5 -6 8 -4 8 5 0 9 3 11 8 5 10 -15 49 -35 67 -35 8 0 15 -5 15 -11
0 -5 5 -7 10 -4 6 3 10 1 10 -5 0 -6 5 -8 10 -5 6 3 10 1 10 -5 0 -6 4 -9 9
-5 5 3 16 -1 24 -9 8 -8 17 -12 21 -9 3 4 6 1 6 -6 0 -7 5 -9 10 -6 6 3 10 1
10 -4 0 -6 9 -11 20 -11 11 0 20 -3 20 -8 0 -4 9 -13 21 -20 17 -11 20 -11 14
0 -5 7 2 3 14 -10 13 -13 34 -27 48 -33 14 -5 21 -14 17 -21 -4 -7 -3 -8 5 -4
7 5 20 -1 32 -15 10 -12 19 -19 19 -15 0 4 7 1 15 -6 99 -85 102 -88 109 -81
3 4 6 -1 6 -10 0 -9 7 -17 16 -17 8 0 12 -4 9 -10 -3 -5 -1 -10 5 -10 16 0
120 -106 113 -114 -4 -3 4 -6 17 -6 13 0 21 -3 18 -6 -9 -8 63 -74 74 -68 4 3
5 -2 2 -10 -4 -10 2 -17 19 -21 17 -5 24 -12 20 -21 -3 -8 -1 -14 5 -14 5 0
33 -22 61 -50 28 -27 56 -50 62 -50 5 0 7 -4 4 -10 -3 -5 -1 -10 5 -10 6 0 8
-4 5 -10 -3 -5 0 -7 8 -4 9 3 17 -3 20 -17 4 -14 11 -20 21 -16 9 4 13 1 10
-7 -3 -7 5 -21 17 -32 13 -10 19 -13 15 -6 -4 6 -2 12 3 12 6 0 11 -7 11 -15
0 -8 9 -20 20 -27 11 -7 20 -19 20 -27 0 -8 3 -11 6 -8 4 3 22 -9 41 -28 19
-19 40 -32 46 -28 6 3 7 1 3 -6 -4 -6 0 -14 8 -17 9 -3 13 -10 10 -15 -3 -5 2
-6 10 -3 11 4 16 0 16 -10 0 -9 5 -16 10 -16 16 0 60 -47 52 -56 -4 -4 -1 -4
6 0 12 7 31 -7 104 -76 15 -14 28 -23 28 -20 0 4 5 -1 11 -10 5 -10 16 -18 22
-18 7 0 20 -9 30 -20 10 -12 22 -18 27 -15 6 3 10 -1 10 -9 0 -9 6 -16 13 -16
7 0 18 -9 25 -20 7 -11 21 -20 33 -20 11 0 17 -4 14 -10 -3 -5 -1 -10 6 -10 6
0 20 -9 30 -21 9 -11 21 -20 26 -20 9 1 9 -5 -2 -36 -4 -13 -12 -23 -17 -23
-5 0 -7 -4 -4 -8 3 -5 -1 -19 -8 -33 -7 -13 -10 -31 -8 -38 3 -8 0 -11 -7 -7
-7 5 -9 1 -5 -8 4 -10 1 -16 -7 -16 -11 0 -11 -3 1 -10 10 -6 11 -10 3 -10 -7
0 -13 -9 -13 -19 0 -11 -4 -22 -9 -25 -5 -3 -7 -16 -3 -28 3 -14 1 -19 -6 -14
-7 4 -9 -2 -6 -20 3 -14 1 -23 -4 -20 -5 3 -8 -6 -6 -19 1 -14 -1 -25 -6 -25
-4 0 -6 -10 -2 -22 4 -16 2 -19 -9 -13 -12 7 -12 6 -1 -7 9 -12 10 -18 2 -23
-7 -4 -10 -16 -7 -26 3 -11 0 -19 -6 -19 -7 0 -5 -5 3 -10 9 -6 11 -10 3 -10
-7 0 -10 -7 -6 -17 4 -9 2 -14 -3 -10 -5 3 -10 -3 -10 -13 0 -10 4 -16 9 -13
5 3 4 -4 -2 -16 -8 -15 -9 -21 -1 -21 6 0 8 -5 5 -10 -4 -6 -12 -7 -18 -3 -7
4 -6 0 2 -10 9 -12 10 -17 2 -17 -9 0 -9 -5 0 -22 10 -19 9 -20 -7 -14 -15 6
-17 5 -6 -5 16 -17 16 -63 0 -53 -7 5 -8 3 -2 -7 13 -21 14 -39 1 -39 -7 0 -5
-5 3 -10 8 -5 10 -10 5 -10 -6 0 -10 -18 -10 -40 0 -22 4 -40 9 -40 4 0 3 -7
-5 -16 -10 -13 -10 -17 1 -24 11 -7 11 -12 2 -23 -7 -7 -9 -16 -6 -19 3 -3 8
-30 11 -59 3 -30 9 -59 14 -65 5 -6 4 -15 -3 -22 -9 -9 -9 -12 0 -12 7 0 12
-7 12 -15 0 -8 -5 -15 -10 -15 -6 0 -5 -6 2 -14 7 -8 17 -12 21 -9 5 3 4 -4
-2 -15 -14 -27 -14 -35 1 -26 7 5 9 2 5 -8 -3 -9 2 -26 11 -39 15 -21 15 -22
-3 -15 -17 6 -18 5 -3 -11 8 -10 19 -25 23 -33 8 -13 7 -13 -8 -1 -15 12 -17
12 -11 -3 3 -9 11 -16 17 -16 6 0 7 -3 4 -7 -4 -3 -2 -12 3 -19 6 -6 10 -16 9
-20 -4 -22 2 -35 12 -28 7 4 7 -1 -1 -16 -10 -18 -9 -21 1 -15 9 6 11 3 6 -8
-3 -9 -2 -19 4 -23 6 -3 8 -12 5 -20 -3 -8 1 -17 8 -20 8 -3 12 -14 9 -25 -3
-10 0 -19 6 -19 6 0 11 -9 11 -20 0 -11 5 -20 10 -20 6 0 10 -9 10 -20 0 -11
6 -20 13 -20 8 0 7 -4 -3 -10 -11 -7 -11 -10 -2 -10 7 0 10 -4 7 -10 -3 -5 1
-10 9 -10 10 0 16 -9 16 -25 0 -14 5 -25 10 -25 6 0 10 -11 10 -25 0 -15 6
-25 15 -25 8 0 12 -6 9 -13 -2 -7 5 -23 16 -35 11 -12 17 -22 13 -22 -4 0 2
-7 13 -16 10 -8 12 -12 4 -8 -13 7 -13 5 -1 -9 7 -9 17 -14 22 -11 5 3 6 -2 3
-10 -3 -9 5 -26 19 -40 16 -16 21 -27 14 -30 -7 -2 -3 -5 7 -5 11 -1 17 -4 13
-7 -6 -6 1 -17 36 -55 9 -10 17 -23 17 -29 0 -5 5 -10 11 -10 5 0 7 -5 3 -12
-4 -6 -3 -8 3 -5 11 7 49 -42 45 -56 -1 -5 2 -6 8 -2 5 3 10 1 10 -5 0 -6 5
-8 12 -4 7 4 8 3 4 -4 -4 -6 5 -19 19 -28 14 -9 24 -23 21 -30 -3 -8 -2 -13 2
-12 17 3 40 -15 35 -28 -3 -9 0 -12 9 -9 9 4 20 -4 28 -20 7 -14 22 -25 32
-25 11 0 16 -4 13 -10 -3 -5 5 -15 19 -21 14 -7 23 -16 20 -20 -3 -5 2 -9 10
-9 9 0 16 -5 16 -11 0 -5 4 -7 10 -4 5 3 10 0 10 -8 0 -8 8 -21 18 -28 16 -13
16 -13 2 6 -15 19 -15 19 12 0 15 -11 28 -23 28 -27 0 -5 7 -8 16 -8 8 0 12
-5 9 -10 -3 -5 1 -10 9 -10 9 0 16 -4 16 -10 0 -5 9 -10 21 -10 11 0 17 -4 14
-10 -3 -5 3 -10 15 -10 12 0 18 -5 15 -10 -3 -5 3 -10 13 -10 11 0 23 -7 26
-16 3 -8 10 -12 16 -9 5 3 10 1 10 -4 0 -6 6 -10 13 -8 6 1 11 -4 9 -12 -2 -8
3 -11 12 -8 8 3 20 -1 27 -9 7 -8 18 -13 26 -10 8 3 16 -1 20 -10 3 -8 12 -13
20 -10 8 3 11 1 8 -4 -6 -9 -2 -12 28 -14 6 -1 17 -10 24 -21 11 -18 12 -18
13 -2 0 15 2 16 14 5 8 -7 12 -16 10 -20 -2 -3 4 -5 13 -3 10 1 27 -5 37 -14
16 -13 18 -13 11 -1 -6 10 -1 9 13 -3 11 -11 25 -16 31 -13 5 4 20 -4 32 -16
12 -13 19 -17 15 -10 -4 7 -1 12 8 12 9 0 16 -4 16 -8 0 -5 7 -9 15 -10 8 -1
22 -3 30 -4 8 -1 15 -5 15 -9 0 -4 6 -7 13 -6 34 1 58 -4 53 -11 -3 -5 1 -9 9
-9 8 0 11 5 8 10 -4 6 4 3 18 -6 26 -19 43 -22 34 -7 -3 6 1 7 9 4 9 -3 16
-11 16 -18 0 -6 5 -4 10 4 7 11 10 11 10 2 0 -7 4 -11 9 -7 5 3 13 0 16 -5 5
-7 12 -5 22 7 8 10 12 12 8 5 -6 -11 -2 -14 28 -16 6 -1 15 -5 19 -11 5 -6 8
-5 8 4 0 11 3 11 15 1 12 -10 15 -10 15 1 0 9 3 10 8 3 4 -6 14 -11 22 -11 8
0 23 -4 33 -8 10 -4 17 -3 17 5 0 6 5 8 13 3 6 -4 19 -8 27 -8 8 0 20 -3 25
-7 6 -4 17 -3 25 3 18 11 33 12 27 2 -3 -5 10 -8 28 -8 18 0 31 3 29 7 -5 8
23 4 32 -5 4 -3 15 -2 25 4 11 5 19 6 19 1 0 -5 7 -9 15 -9 8 0 15 4 15 8 0 9
20 6 39 -5 10 -6 12 -5 7 2 -7 12 -4 13 69 16 22 0 46 5 54 10 11 7 12 6 6 -5
-7 -12 -6 -12 7 -1 13 10 17 10 21 0 3 -8 6 -6 6 5 1 15 5 16 21 7 14 -8 20
-8 20 0 0 6 4 9 9 5 5 -3 13 -1 16 5 5 8 11 7 21 -1 11 -9 15 -8 20 6 5 13 9
14 15 3 7 -11 9 -11 9 1 0 8 6 11 16 7 8 -3 12 -2 9 4 -4 6 6 8 24 6 17 -2 28
0 26 4 -3 4 2 10 10 14 8 3 17 1 21 -5 4 -6 11 -6 19 1 8 7 20 8 26 4 7 -4 9
-3 5 4 -3 6 -2 13 4 17 5 3 10 0 10 -7 0 -9 3 -9 10 2 5 8 10 11 10 5 0 -5 5
-2 11 8 8 14 14 15 24 7 9 -8 14 -7 19 5 3 8 10 15 16 15 6 0 8 -6 5 -13 -4
-6 0 -4 9 7 8 10 19 15 25 11 6 -3 11 2 12 12 0 10 3 13 5 7 5 -13 58 8 70 27
4 6 12 5 22 -3 10 -7 14 -9 10 -4 -4 5 -1 15 7 22 17 17 28 18 20 2 -4 -7 0
-5 9 6 8 10 22 16 30 13 10 -4 13 -1 9 9 -3 8 -2 14 3 13 25 -4 45 2 38 13 -5
8 0 9 14 6 12 -4 19 -2 16 3 -3 5 3 12 13 16 10 4 24 14 31 22 8 9 11 10 7 3
-3 -6 -1 -12 4 -12 6 0 11 6 11 14 0 8 5 18 12 22 7 4 8 3 4 -4 -4 -7 -2 -12
3 -12 6 0 11 7 11 16 0 8 4 13 9 10 5 -3 12 1 15 10 3 8 10 12 16 9 5 -3 10
-1 10 5 0 6 5 8 10 5 6 -4 9 -1 8 6 -2 7 3 14 10 15 6 1 16 2 22 3 5 0 9 6 7
13 -1 7 3 12 9 13 7 0 20 9 30 20 11 11 16 16 12 11 -5 -6 -8 -15 -8 -20 0 -6
10 4 21 21 12 18 25 30 30 27 5 -3 9 2 9 11 0 9 5 13 10 10 6 -3 10 -1 10 5 0
6 4 8 10 5 6 -4 7 1 3 12 -3 10 -3 15 1 11 10 -8 76 54 76 71 0 6 7 11 15 11
9 0 20 10 25 23 5 12 9 18 9 14 1 -4 10 1 22 12 13 12 18 24 13 32 -5 8 -3 11
7 7 15 -6 32 9 37 32 2 8 11 22 20 30 10 8 18 17 18 20 -1 11 31 50 36 44 4
-3 9 4 13 15 3 12 10 21 15 21 5 0 6 7 3 17 -5 12 -3 14 7 8 10 -6 12 -4 7 8
-4 11 -2 14 9 10 8 -3 14 -2 13 3 -4 17 24 63 34 57 6 -3 7 -1 3 5 -8 14 18
55 28 45 4 -4 4 0 0 10 -3 10 -1 17 6 17 6 0 9 4 5 9 -3 6 0 13 7 18 7 4 13
15 13 23 0 8 5 14 11 13 7 -1 10 6 7 17 -3 11 0 20 6 20 6 0 11 9 11 21 0 11
4 17 10 14 6 -3 7 1 4 9 -3 9 -1 16 6 16 6 0 8 5 5 10 -3 6 -1 10 4 10 6 0 10
3 10 8 -4 24 2 52 11 47 6 -4 10 5 10 19 0 14 4 26 9 26 5 0 8 8 7 18 -2 9 1
20 6 23 5 3 10 16 11 27 1 12 5 22 10 22 4 0 5 5 2 10 -4 6 -1 18 7 27 11 14
11 16 -2 9 -8 -4 -4 2 9 13 12 12 27 19 31 16 5 -3 11 -1 15 5 4 7 12 7 26 0
12 -7 19 -7 19 -1 0 6 7 7 17 4 9 -4 14 -2 11 3 -4 5 19 9 52 9 32 0 56 4 53
9 -3 5 6 7 21 4 14 -3 26 -2 26 1 0 4 8 7 18 8 9 1 31 3 47 5 17 2 33 8 37 13
5 6 8 5 8 -4 0 -11 3 -11 15 -1 8 7 30 14 47 16 18 2 35 10 40 17 6 9 8 9 8
-1 0 -10 5 -10 20 -2 11 6 25 8 30 5 6 -3 10 -2 10 4 0 5 9 8 20 6 13 -2 23 2
27 11 5 13 7 13 14 2 6 -9 9 -9 9 -1 0 6 9 10 20 8 11 -2 20 1 20 7 0 5 7 8
15 5 8 -4 17 -2 20 4 4 5 10 7 15 4 5 -3 11 -1 14 4 3 4 24 11 46 15 22 3 40
12 40 19 0 8 4 7 10 -3 7 -12 10 -12 10 -1 0 8 6 11 15 7 9 -3 18 1 21 9 4 8
10 12 15 9 6 -3 16 0 24 6 8 7 15 9 15 5 0 -4 8 -1 17 6 14 12 16 12 9 -1 -4
-9 -1 -8 7 3 8 9 21 17 30 17 9 0 19 5 22 10 4 6 11 8 16 5 5 -4 9 -1 9 6 0 7
3 9 6 6 4 -3 16 -1 28 5 11 7 25 12 29 13 4 0 12 7 17 15 7 11 10 12 10 2 0
-10 3 -10 15 1 8 9 31 21 50 27 19 6 35 16 35 21 0 5 9 9 20 9 11 0 20 5 20
11 0 5 5 7 10 4 6 -3 10 -1 10 4 0 6 12 11 27 11 14 0 23 3 19 7 -9 9 64 44
77 36 6 -3 7 -1 3 5 -4 7 -1 12 9 12 9 0 14 4 11 9 -4 5 7 12 24 16 16 4 30
11 30 16 0 5 6 9 14 9 7 0 19 7 26 15 7 8 16 12 21 9 5 -3 9 0 9 5 0 6 6 11
14 11 8 0 22 7 30 16 9 8 20 12 26 9 5 -3 10 -2 10 2 0 5 13 17 30 26 16 10
30 15 30 11 0 -4 8 3 19 14 10 12 21 19 24 16 3 -4 13 1 22 10 9 9 21 14 26
11 5 -4 9 -3 9 2 0 12 60 44 71 37 5 -3 8 0 7 7 -2 7 2 13 9 14 7 0 21 7 31
16 10 9 26 15 36 13 10 -1 15 0 12 3 -9 9 33 35 44 28 6 -3 10 1 10 9 0 9 6
16 14 16 8 0 17 6 19 13 4 9 6 9 6 -1 1 -8 8 -6 23 8 12 11 28 20 35 20 7 0
13 4 13 9 0 10 39 27 53 23 5 -1 6 2 2 7 -3 6 6 13 20 17 14 3 25 10 25 16 0
5 5 6 10 3 6 -3 10 -1 10 5 0 6 4 9 8 6 5 -3 14 4 22 14 8 10 18 16 23 13 5
-3 22 8 39 23 17 16 27 22 23 14 -5 -8 3 -5 17 8 13 12 28 19 31 15 4 -3 7 -2
7 4 0 10 49 38 63 35 4 -1 7 3 7 9 0 5 13 15 30 20 17 6 27 16 23 22 -4 6 -1
7 7 2 8 -5 18 -1 27 11 8 10 16 18 18 17 13 -8 25 -2 19 9 -5 8 -2 9 9 5 10
-3 17 -2 17 3 0 6 7 10 15 10 8 0 15 5 15 10 0 6 9 10 21 10 11 0 18 4 15 9
-5 7 19 19 40 19 3 1 14 11 25 23 12 14 19 17 19 8 0 -8 7 -4 16 9 8 12 20 20
25 17 5 -4 20 5 34 19 14 14 25 23 25 21 0 -3 9 3 20 12 11 10 20 23 20 29 0
7 5 14 12 16 16 6 19 38 3 38 -7 0 -18 -7 -25 -15 -7 -8 -19 -15 -26 -15 -8 0
-14 -5 -14 -11 0 -5 -4 -8 -9 -4 -5 3 -15 0 -23 -7 -7 -7 -20 -14 -28 -16 -8
-2 -17 -7 -20 -11 -3 -3 -15 -6 -27 -5 -13 1 -23 -3 -23 -7 0 -5 -10 -9 -23
-9 -13 0 -27 -3 -31 -7 -4 -4 -19 -9 -34 -11 -15 -2 -31 -7 -36 -13 -14 -13
-28 -11 -21 4 4 6 -1 3 -9 -7 -9 -11 -16 -16 -16 -12 0 5 -7 3 -15 -4 -8 -7
-15 -9 -15 -5 0 4 -6 2 -13 -4 -8 -6 -17 -8 -20 -4 -4 3 -7 1 -7 -5 0 -7 -9
-12 -20 -12 -11 0 -20 -4 -20 -9 0 -6 -9 -8 -20 -6 -13 2 -18 0 -14 -7 4 -6 1
-9 -7 -6 -8 3 -20 -1 -27 -9 -8 -7 -18 -11 -23 -8 -5 4 -9 1 -9 -5 0 -7 -7 -9
-16 -6 -8 3 -13 2 -10 -3 7 -11 -22 -23 -36 -14 -6 3 -8 1 -5 -4 7 -10 -12
-23 -41 -29 -8 -1 -22 -10 -33 -19 -10 -10 -25 -15 -34 -11 -9 3 -13 2 -10 -4
7 -11 -32 -33 -45 -25 -6 4 -9 3 -8 -2 2 -4 -1 -8 -5 -8 -5 0 -13 -8 -18 -18
-6 -9 -14 -15 -20 -12 -5 4 -12 -1 -15 -9 -3 -9 -10 -13 -15 -10 -5 3 -9 0 -9
-5 0 -6 -7 -11 -15 -11 -8 0 -15 -4 -15 -10 0 -5 -11 -12 -24 -16 -14 -3 -27
-12 -30 -19 -3 -8 -14 -12 -25 -10 -11 2 -24 -1 -27 -7 -5 -7 -2 -8 7 -3 8 4
5 -1 -6 -12 -11 -11 -26 -18 -34 -15 -9 3 -12 1 -7 -6 5 -8 0 -12 -13 -12 -11
0 -25 -8 -30 -17 -6 -10 -11 -15 -11 -11 0 4 -34 -13 -75 -37 -42 -25 -78 -45
-82 -45 -3 0 -21 -12 -40 -26 -19 -14 -37 -23 -40 -20 -3 3 -14 -4 -24 -15 -9
-11 -21 -20 -26 -19 -19 3 -45 -9 -39 -18 3 -6 -2 -9 -11 -8 -10 2 -28 -4 -40
-12 -13 -8 -23 -10 -23 -6 0 5 -4 4 -8 -1 -12 -17 -59 -38 -70 -31 -5 3 -13
-1 -16 -10 -3 -8 -10 -13 -15 -10 -5 4 -17 -1 -25 -10 -9 -8 -16 -11 -16 -5 0
6 -15 2 -34 -8 -19 -11 -37 -17 -40 -14 -3 4 -6 2 -6 -4 0 -6 -8 -9 -19 -6
-10 3 -22 0 -25 -6 -4 -6 -16 -11 -27 -11 -11 0 -18 -4 -14 -9 3 -6 -4 -8 -15
-6 -11 2 -20 -1 -20 -7 0 -6 -3 -9 -6 -6 -3 4 -22 -1 -42 -9 -20 -8 -39 -15
-42 -14 -3 0 -23 -4 -45 -10 -22 -6 -42 -11 -45 -12 -3 0 -19 -6 -36 -13 -17
-7 -34 -10 -38 -7 -3 4 -6 1 -6 -6 0 -7 -4 -9 -10 -6 -5 3 -10 2 -10 -3 0 -5
-10 -8 -22 -7 -13 1 -26 -3 -30 -9 -5 -7 -8 -6 -8 3 0 11 -3 11 -15 1 -14 -11
-40 -18 -82 -22 -7 -1 -13 -4 -13 -7 0 -4 -11 -8 -26 -9 -14 -1 -34 -7 -46
-13 -16 -9 -19 -8 -13 3 6 10 5 10 -5 1 -7 -6 -19 -9 -26 -6 -8 3 -14 -1 -14
-8 0 -7 -3 -10 -6 -6 -3 3 -16 2 -29 -3 -15 -6 -27 -4 -35 3 -10 9 -11 9 -6 0
4 -8 2 -13 -6 -14 -7 0 -22 -3 -33 -5 -11 -2 -28 -5 -37 -6 -10 -1 -18 -5 -18
-8 0 -3 -19 -6 -43 -8 -23 -1 -57 -4 -74 -5 -18 -1 -33 -5 -33 -9 0 -4 -8 -7
-17 -7 -10 0 -30 -2 -46 -4 -15 -2 -30 0 -33 5 -3 4 -11 5 -17 1 -9 -5 -9 -3
-1 8 16 20 28 72 14 64 -5 -3 -10 -2 -10 3 0 6 7 13 16 16 9 4 12 11 7 18 -11
18 -10 32 2 40 6 5 5 8 -4 8 -11 0 -11 3 -1 15 10 12 10 15 0 15 -10 0 -10 3
-1 14 9 10 9 16 1 21 -8 5 -8 11 1 21 9 11 8 14 -2 14 -12 0 -12 2 0 9 9 6 10
11 2 15 -8 5 -8 13 -1 27 8 14 7 19 -1 19 -8 0 -8 4 1 15 8 9 9 15 2 15 -11 0
-9 31 4 52 5 7 3 8 -5 3 -9 -5 -11 1 -8 24 3 19 1 31 -6 31 -6 0 -2 7 9 15 11
9 13 13 4 10 -12 -4 -15 3 -14 35 0 22 -3 40 -8 40 -5 0 -8 6 -7 13 5 38 -2
68 -13 61 -10 -6 -10 -5 -1 7 10 12 10 18 0 29 -9 10 -9 11 0 6 9 -5 11 -2 7
8 -3 9 -9 14 -13 12 -3 -2 -6 11 -5 30 1 20 -3 34 -10 34 -6 0 -4 5 4 10 14 9
13 11 -10 14 -5 0 -10 4 -10 9 0 4 0 12 0 18 0 5 6 7 13 3 7 -5 6 -1 -3 10 -8
10 -15 25 -16 34 -2 8 -9 19 -16 23 -10 7 -10 9 2 9 13 0 13 1 0 10 -8 5 -11
10 -6 10 4 0 1 11 -8 25 -9 13 -16 34 -16 45 0 12 -4 19 -8 16 -5 -3 -8 5 -7
17 1 12 -5 28 -14 35 -13 11 -13 12 -1 6 11 -6 10 -2 -3 13 -9 11 -14 23 -10
26 3 4 1 7 -6 7 -7 0 -10 4 -7 9 3 4 -3 16 -13 25 -12 11 -17 25 -13 38 3 14
1 19 -6 14 -8 -5 -12 2 -12 19 0 15 -4 24 -10 20 -5 -3 -10 3 -10 14 0 12 -5
21 -11 21 -5 0 -8 4 -5 9 3 5 -1 12 -9 15 -8 3 -14 11 -13 18 2 7 -3 12 -10
10 -8 -1 -11 2 -7 8 4 6 1 17 -5 25 -7 8 -9 15 -4 15 4 0 -4 13 -19 28 -15 16
-24 32 -20 36 4 4 0 4 -9 1 -13 -5 -16 -2 -13 13 2 13 -3 22 -16 25 -10 3 -19
12 -19 21 0 9 -5 16 -11 16 -5 0 -7 5 -4 10 3 6 -1 10 -10 10 -11 0 -15 5 -12
15 4 8 1 17 -5 21 -7 5 -8 2 -3 -7 8 -12 6 -12 -8 0 -9 7 -15 17 -12 21 3 5
-4 11 -14 15 -13 4 -18 11 -14 22 5 13 2 15 -11 10 -14 -6 -17 -3 -12 8 3 9 2
13 -4 10 -6 -4 -14 4 -19 17 -6 13 -10 19 -10 15 -1 -11 -31 19 -31 30 0 5 14
24 31 41 17 18 28 32 25 32 -4 0 3 11 16 25 39 41 53 59 53 68 0 5 9 15 19 23
11 8 16 14 10 14 -5 0 0 7 10 15 11 8 17 18 13 21 -8 8 16 33 25 27 4 -2 5 3
2 11 -4 11 0 16 12 16 9 0 14 3 11 7 -4 3 -2 12 4 20 6 7 8 13 5 13 -6 0 -1 8
34 49 8 10 16 24 18 32 2 8 10 20 19 27 10 7 12 12 5 12 -7 0 -3 9 8 20 11 11
22 31 26 45 3 14 11 25 16 25 6 0 7 7 4 16 -3 8 -2 13 3 10 8 -5 24 20 18 27
-1 1 8 18 20 37 12 19 22 40 23 45 1 6 6 9 12 7 5 -1 7 1 5 5 -3 5 3 26 14 47
10 21 16 43 13 47 -3 5 1 9 8 9 8 0 14 12 14 29 3 52 -33 32 -151 -84 -61 -60
-113 -114 -116 -120 -2 -5 -7 -9 -11 -8 -5 2 -8 -4 -8 -12 0 -8 -5 -15 -10
-15 -6 0 -15 -11 -22 -25 -6 -13 -15 -22 -20 -19 -4 3 -11 -3 -15 -13 -4 -10
-15 -24 -25 -31 -10 -7 -16 -17 -13 -22 3 -5 -4 -11 -15 -15 -11 -3 -19 -12
-17 -18 1 -7 -4 -11 -11 -9 -8 1 -11 -2 -7 -8 3 -5 -7 -22 -22 -37 -15 -14
-21 -23 -13 -18 8 4 5 -2 -7 -14 -13 -12 -23 -26 -23 -31 0 -6 -3 -9 -7 -7 -5
1 -10 -2 -12 -8 -9 -27 -44 -64 -53 -59 -6 4 -8 2 -4 -4 3 -6 2 -13 -4 -17 -6
-4 -8 -11 -5 -16 4 -5 -1 -9 -9 -9 -9 0 -16 -4 -16 -9 0 -6 -11 -22 -25 -37
-19 -20 -25 -23 -25 -10 0 9 -5 16 -11 16 -7 0 -18 8 -26 18 -9 11 -12 11 -8
2 4 -8 -5 -1 -20 15 -14 17 -30 29 -33 28 -4 0 -6 3 -5 7 1 4 -5 7 -15 6 -9 0
-16 4 -15 11 2 7 -6 10 -17 8 -11 -2 -19 -1 -19 3 3 20 -2 25 -11 12 -8 -13
-10 -12 -10 3 0 10 -4 15 -10 12 -6 -3 -10 -1 -10 4 0 6 -7 11 -16 11 -8 0
-13 4 -10 9 3 5 -1 12 -10 15 -10 4 -13 2 -9 -7 4 -6 -1 -3 -9 7 -9 11 -16 16
-16 12 0 -5 -6 -3 -13 3 -8 6 -18 7 -22 3 -5 -4 -6 0 -2 9 4 13 1 16 -15 11
-14 -3 -19 -1 -14 6 5 8 0 12 -14 12 -11 0 -32 8 -47 17 -14 10 -33 18 -41 19
-8 2 -18 7 -21 12 -3 5 -14 8 -24 6 -9 -1 -15 2 -11 7 3 5 -1 9 -8 9 -7 0 -26
7 -41 15 -15 8 -34 12 -41 9 -7 -3 -20 1 -27 8 -8 7 -25 15 -39 16 -14 2 -31
9 -39 15 -12 10 -13 9 -6 -3 8 -13 6 -13 -8 -2 -9 8 -22 10 -28 6 -8 -5 -9 -3
-4 6 6 10 4 12 -8 7 -10 -4 -17 -1 -17 6 0 8 -4 6 -10 -3 -8 -12 -10 -12 -10
5 -1 20 -1 20 -15 1 -13 -17 -15 -17 -15 -4 0 9 -5 20 -12 24 -7 4 -8 3 -4 -4
11 -18 -5 -14 -26 5 -18 16 -18 16 -12 -2 6 -14 4 -16 -7 -9 -17 10 -36 15
-66 17 -13 0 -23 6 -23 12 0 5 -5 3 -10 -5 -6 -10 -10 -11 -10 -2 0 6 -9 12
-21 12 -13 0 -18 -4 -13 -12 5 -9 2 -8 -9 1 -10 8 -37 14 -60 14 -23 0 -45 5
-49 11 -5 7 -8 7 -8 -3 0 -11 -3 -11 -15 -1 -12 10 -15 10 -15 0 0 -10 -3 -10
-15 0 -12 10 -15 10 -15 -1 0 -11 -2 -11 -10 1 -7 11 -10 12 -10 2 0 -10 -4
-10 -16 2 -20 20 -25 20 -17 -1 5 -12 3 -14 -8 -7 -20 12 -69 12 -69 -1 0 -5
-4 -4 -9 3 -11 17 -21 17 -32 0 -7 -11 -9 -11 -9 1 0 11 -3 11 -16 0 -13 -10
-17 -10 -25 2 -6 9 -9 10 -9 2 0 -7 -7 -10 -17 -6 -9 4 -14 2 -11 -3 4 -5 -14
-9 -40 -8 -26 0 -53 -4 -61 -10 -11 -8 -13 -8 -8 1 5 7 0 9 -13 6 -11 -3 -17
-10 -14 -15 4 -6 -3 -5 -15 1 -13 7 -21 8 -21 2 0 -6 -7 -7 -17 -4 -11 4 -14
3 -9 -5 5 -9 0 -9 -19 -2 -17 7 -24 7 -20 0 3 -6 1 -10 -5 -10 -6 0 -8 -6 -4
-12 4 -7 -3 -4 -15 7 -12 11 -22 15 -21 10 5 -21 -1 -25 -19 -15 -16 8 -23 6
-35 -12 -9 -12 -16 -18 -16 -12 0 6 -7 11 -15 11 -8 0 -11 -5 -8 -10 4 -6 0
-8 -10 -4 -10 3 -17 2 -17 -3 0 -5 -9 -7 -20 -5 -11 2 -18 0 -15 -6 4 -5 -1
-9 -10 -9 -9 0 -28 -8 -42 -17 -15 -10 -24 -12 -20 -5 5 6 4 12 -2 12 -6 0
-11 -4 -11 -9 0 -5 -17 -13 -37 -18 -21 -5 -37 -14 -36 -20 1 -6 -6 -10 -15
-10 -34 0 -43 -3 -37 -13 4 -6 -1 -7 -11 -3 -12 4 -15 3 -10 -5 5 -8 2 -10 -8
-6 -9 3 -16 1 -16 -5 0 -6 -7 -8 -15 -5 -8 4 -17 -1 -21 -9 -3 -9 -11 -14 -18
-11 -7 3 -24 -6 -38 -19 -14 -13 -33 -22 -42 -21 -9 1 -14 -1 -11 -6 3 -4 -7
-11 -21 -14 -17 -5 -24 -12 -20 -21 3 -10 0 -12 -11 -8 -12 5 -14 3 -8 -7 5
-8 4 -11 -3 -7 -14 9 -43 -3 -36 -14 3 -5 -2 -9 -10 -9 -9 0 -16 -5 -16 -10 0
-6 -6 -9 -12 -8 -7 2 -12 -3 -10 -10 1 -8 -2 -11 -8 -7 -5 3 -13 -1 -16 -10
-5 -12 -9 -13 -20 -4 -12 10 -13 9 -8 -5 5 -12 2 -15 -10 -10 -13 5 -15 2 -10
-12 4 -11 4 -16 -1 -12 -4 4 -14 0 -22 -10 -8 -9 -11 -11 -7 -3 5 9 3 12 -4 7
-7 -4 -12 -14 -12 -22 0 -8 -4 -13 -9 -10 -5 3 -12 -1 -15 -10 -3 -8 -10 -12
-16 -9 -5 3 -10 -1 -10 -9 0 -9 -7 -16 -17 -16 -9 0 -14 -3 -10 -6 3 -4 0 -13
-8 -20 -17 -17 -29 -18 -19 -2 5 7 2 9 -9 5 -10 -4 -18 1 -22 14 -4 10 -11 19
-16 19 -5 0 -9 7 -9 15 0 8 -3 15 -7 15 -5 0 -17 14 -28 30 -11 16 -27 30 -35
30 -13 0 -13 1 0 10 13 8 12 10 -2 10 -11 0 -18 8 -18 20 0 11 -4 19 -8 18
-10 -4 -68 54 -65 64 2 4 -6 10 -17 13 -11 4 -20 13 -20 21 0 8 -4 14 -8 14
-15 0 -52 37 -45 44 3 3 1 6 -6 6 -17 0 -61 46 -53 56 4 4 2 4 -4 1 -7 -4 -24
6 -40 21 -15 15 -24 21 -19 13 6 -10 4 -12 -4 -7 -7 5 -10 15 -7 23 3 8 2 12
-3 9 -8 -6 -59 28 -73 49 -4 5 -8 6 -8 2 0 -8 -15 3 -55 39 -13 12 -26 19 -29
16 -3 -3 -6 0 -6 7 0 7 -5 9 -10 6 -6 -3 -13 1 -16 9 -3 9 -14 16 -24 16 -10
0 -23 7 -30 15 -7 8 -18 15 -25 15 -7 0 -18 7 -25 15 -7 8 -16 13 -20 10 -4
-3 -11 2 -14 11 -4 9 -13 14 -22 10 -8 -3 -12 -2 -9 4 3 6 1 11 -4 11 -6 1
-17 2 -23 3 -7 1 -12 8 -10 15 1 7 -2 10 -7 7 -5 -4 -15 0 -23 7 -7 8 -19 12
-26 9 -6 -2 -12 1 -12 7 0 6 -3 10 -7 9 -17 -3 -42 15 -36 26 4 6 -1 5 -10 -3
-9 -7 -17 -9 -17 -4 0 10 -62 38 -91 42 -5 0 -8 5 -4 10 3 6 -4 8 -15 6 -11
-2 -20 1 -20 7 0 5 -8 7 -17 4 -10 -4 -14 -4 -10 0 7 8 -86 46 -115 47 -10 1
-18 5 -18 9 0 4 -8 8 -18 8 -10 0 -24 6 -31 13 -10 8 -12 8 -7 0 4 -7 -7 -5
-26 5 -18 9 -42 17 -53 19 -28 5 -59 11 -65 13 -3 1 -8 2 -12 1 -5 0 -8 5 -8
12 0 8 -4 7 -10 -3 -6 -9 -10 -10 -10 -3 0 6 -9 10 -20 8 -11 -2 -20 0 -20 6
0 5 -3 8 -7 8 -31 -5 -73 3 -67 12 4 8 0 8 -15 0 -11 -7 -21 -8 -21 -3 0 4
-11 9 -25 10 -14 1 -36 2 -50 3 -15 1 -22 6 -18 13 4 6 -1 5 -11 -3 -10 -9
-20 -11 -24 -5 -9 11 -382 12 -401 0 -8 -5 -16 -4 -21 4 -5 8 -9 9 -11 1z
m3545 -832 c-4 -8 1 -9 17 -4 28 9 127 10 136 1 3 -3 13 0 21 7 13 10 15 9 9
-7 -6 -14 -4 -16 5 -9 15 11 61 15 54 5 -2 -4 11 -8 30 -8 18 -1 31 2 28 7 -2
4 7 2 22 -6 15 -7 33 -11 42 -8 11 5 13 3 7 -8 -7 -12 -6 -12 7 -1 13 10 17
10 21 -1 3 -8 19 -12 42 -12 24 1 39 -3 42 -13 5 -11 7 -11 14 0 6 9 9 9 9 1
0 -6 9 -10 20 -8 11 2 18 0 15 -6 -5 -8 15 -14 38 -10 4 0 7 -4 7 -10 0 -5 5
-7 11 -4 5 4 19 -1 29 -10 10 -9 23 -14 29 -11 5 4 12 2 16 -4 3 -5 15 -15 27
-21 15 -8 19 -8 14 0 -11 18 2 13 24 -9 12 -12 25 -18 30 -15 6 4 10 1 10 -4
0 -6 7 -11 15 -11 8 0 15 -5 15 -11 0 -5 5 -7 10 -4 6 3 10 1 10 -6 0 -7 3
-10 6 -6 4 3 13 -1 21 -9 8 -8 19 -12 24 -9 5 4 9 -2 9 -12 0 -15 2 -16 10 -3
7 11 10 12 10 2 0 -19 30 -48 30 -30 0 8 5 6 11 -5 6 -9 14 -15 19 -12 4 3 11
-2 14 -11 3 -8 10 -12 16 -9 9 5 14 -7 11 -27 0 -3 7 -5 16 -4 23 4 42 -15 35
-33 -3 -9 -1 -12 6 -7 6 4 20 -2 31 -13 19 -19 18 -19 -5 -32 -13 -7 -24 -16
-24 -21 0 -5 -5 -6 -12 -2 -7 4 -8 3 -4 -4 4 -7 -6 -20 -26 -32 -18 -11 -29
-20 -23 -20 5 0 -2 -7 -15 -17 -14 -9 -37 -27 -52 -41 -16 -14 -28 -23 -28
-19 0 3 -12 -4 -26 -17 -51 -45 -64 -56 -71 -56 -5 0 -17 -8 -28 -17 -11 -9
-22 -17 -25 -16 -3 1 -4 -3 -3 -7 1 -5 -5 -7 -14 -6 -8 1 -26 -8 -39 -21 -13
-13 -29 -21 -34 -18 -6 3 -10 1 -10 -5 0 -6 -5 -8 -10 -5 -6 3 -13 -1 -16 -9
-3 -9 -10 -13 -15 -10 -5 3 -12 -1 -15 -10 -3 -8 -11 -13 -19 -10 -7 3 -21 -3
-30 -13 -10 -10 -19 -17 -19 -15 -1 2 -14 -2 -31 -9 -16 -7 -32 -13 -35 -14
-3 -1 -18 -7 -35 -14 -16 -7 -38 -13 -47 -14 -9 -1 -15 -4 -12 -8 2 -4 -3 -9
-11 -13 -8 -3 -15 0 -15 7 0 7 -5 4 -11 -5 -5 -10 -16 -15 -24 -12 -8 4 -15 1
-15 -6 0 -6 -4 -8 -10 -5 -5 3 -10 3 -10 -2 0 -4 -10 -9 -23 -10 -49 -5 -62
-8 -68 -17 -4 -5 -18 -8 -33 -8 -14 0 -26 -4 -26 -8 0 -3 -6 -7 -12 -7 -7 -1
-29 -4 -48 -8 -19 -3 -47 -7 -62 -8 -16 -1 -28 -5 -28 -9 0 -5 -5 -8 -11 -8
-5 0 -7 5 -3 12 4 6 -3 4 -15 -4 -12 -9 -31 -14 -42 -11 -10 3 -25 0 -33 -6
-10 -9 -16 -9 -21 -1 -5 8 -11 7 -23 -2 -13 -11 -14 -11 -7 2 7 12 6 13 -6 4
-15 -11 -227 -13 -245 -1 -6 3 -21 5 -33 2 -11 -2 -21 0 -21 5 0 5 -7 7 -15 4
-9 -4 -15 0 -15 7 0 11 -3 11 -10 -1 -7 -11 -10 -12 -10 -2 0 9 -7 11 -20 7
-11 -4 -20 -2 -20 4 0 6 -3 10 -7 10 -31 -5 -63 2 -57 13 5 8 2 9 -9 5 -9 -3
-19 -2 -22 4 -4 5 -11 7 -16 4 -5 -4 -9 -2 -9 4 0 5 -9 8 -20 6 -11 -2 -18 0
-15 5 3 5 -6 12 -20 16 -14 3 -25 11 -25 18 0 7 -4 6 -9 -2 -7 -11 -9 -10 -15
3 -3 9 -10 14 -15 11 -5 -3 -12 1 -15 10 -4 9 -9 14 -12 11 -3 -3 -17 5 -31
19 -13 13 -30 21 -36 18 -7 -4 -9 -4 -5 1 8 9 -9 28 -34 38 -10 3 -18 12 -18
18 0 6 -10 20 -22 31 -23 19 -33 48 -17 48 4 0 5 7 2 17 -4 10 -2 14 4 10 7
-4 16 7 23 28 6 19 16 33 21 30 5 -4 9 5 9 19 0 15 8 30 20 36 11 6 20 17 20
24 0 7 11 23 25 36 14 13 23 30 20 38 -2 7 0 10 5 7 6 -3 10 -1 10 5 0 6 5 8
10 5 9 -6 14 8 11 28 0 4 6 7 15 7 8 0 12 5 9 10 -3 6 -2 10 4 10 6 0 38 27
72 60 34 33 68 60 76 60 8 0 11 5 8 10 -6 10 9 15 30 10 5 -1 7 1 3 5 -8 9 16
35 32 35 6 0 18 6 25 13 33 29 42 34 58 31 9 -1 15 2 11 7 -5 8 9 13 29 10 4
0 7 4 7 10 0 5 4 8 9 4 5 -3 12 -1 16 5 4 6 11 8 16 5 5 -4 9 -1 9 5 0 7 7 9
16 6 8 -3 12 -2 9 3 -3 5 -1 12 5 16 5 3 10 1 10 -6 0 -7 7 -4 16 7 8 10 12
12 8 4 -7 -13 -5 -13 9 -1 9 7 17 10 17 5 0 -5 5 -2 10 6 9 13 11 13 20 0 8
-13 10 -12 10 3 0 14 7 18 29 15 16 -1 37 4 47 12 10 9 15 10 10 3 -5 -9 -2
-11 8 -7 9 3 14 9 12 13 -3 4 9 6 27 5 17 -1 40 2 50 8 15 8 18 7 12 -4 -6
-10 -5 -11 5 -1 11 10 17 10 29 0 10 -8 13 -9 8 0 -4 7 0 13 10 16 10 3 19 5
21 6 2 0 0 -4 -4 -10z m1227 -519 c19 0 51 -38 44 -51 -5 -8 -4 -10 3 -5 7 4
12 2 12 -4 0 -6 5 -8 12 -4 6 4 8 3 4 -4 -3 -6 4 -18 16 -27 13 -8 22 -18 20
-22 -2 -4 5 -10 15 -14 12 -5 13 -8 3 -8 -10 -1 -7 -6 8 -17 13 -9 21 -22 18
-30 -3 -9 2 -14 14 -14 11 0 19 -3 18 -7 -4 -14 13 -53 21 -49 4 3 13 -10 21
-27 7 -18 20 -38 27 -45 7 -8 11 -18 8 -23 -4 -5 -1 -9 4 -9 6 0 11 -7 11 -16
0 -8 5 -12 10 -9 6 3 10 -3 10 -14 0 -12 4 -21 10 -21 5 0 7 -6 4 -13 -3 -8 2
-19 10 -26 8 -7 12 -20 9 -28 -5 -12 -3 -14 7 -8 10 6 12 4 7 -8 -3 -10 -3
-17 1 -17 4 0 13 -9 20 -21 9 -13 9 -18 2 -14 -14 9 10 -36 25 -47 6 -5 5 -8
-3 -8 -10 0 -9 -4 2 -16 9 -8 14 -20 11 -25 -4 -5 1 -18 9 -30 8 -12 12 -27
10 -34 -3 -7 0 -16 7 -21 8 -5 10 -3 4 6 -6 9 -4 11 4 5 9 -5 10 -10 2 -18 -8
-8 -6 -16 7 -31 9 -11 11 -16 5 -12 -7 4 -13 3 -13 -3 0 -5 6 -12 13 -14 9 -4
9 -8 -1 -15 -11 -7 -11 -10 2 -15 9 -4 13 -14 11 -27 -2 -11 1 -20 6 -20 6 0
8 -4 5 -8 -3 -4 -1 -25 4 -45 5 -26 4 -37 -4 -37 -6 0 -4 -5 5 -10 10 -6 15
-21 14 -42 -1 -18 2 -39 8 -45 6 -9 6 -13 -2 -13 -7 0 -9 -5 -5 -12 4 -6 9
-29 10 -50 2 -28 0 -37 -9 -31 -9 5 -9 3 -1 -8 13 -17 13 -138 0 -158 -6 -10
-5 -12 2 -7 7 4 12 3 12 -3 0 -5 -5 -13 -10 -16 -8 -5 -7 -11 1 -21 9 -11 9
-14 0 -14 -7 0 -9 -5 -6 -10 4 -7 -8 -10 -34 -9 -23 2 -41 8 -41 13 0 6 -4 5
-9 -3 -6 -9 -11 -10 -15 -2 -4 6 -12 9 -17 5 -5 -3 -16 0 -24 6 -12 10 -15 10
-15 0 0 -9 -8 -7 -26 5 -14 9 -32 14 -39 11 -7 -2 -16 3 -20 12 -5 12 -8 13
-14 4 -6 -10 -11 -10 -21 2 -7 9 -16 13 -21 10 -5 -3 -9 0 -9 5 0 6 -9 11 -20
11 -11 0 -20 5 -20 10 0 6 -9 10 -21 10 -11 0 -17 5 -14 10 3 6 -3 10 -15 10
-12 0 -18 5 -15 10 3 6 -3 10 -15 10 -12 0 -18 5 -15 10 3 6 -1 10 -10 10 -9
0 -14 3 -12 8 3 4 -1 13 -9 20 -8 7 -14 10 -14 7 0 -3 -15 9 -33 27 -18 18
-32 36 -30 39 2 4 -9 14 -22 23 -14 9 -23 21 -20 26 4 6 -1 10 -9 10 -9 0 -16
9 -16 20 0 11 -4 20 -9 20 -5 0 -13 10 -17 22 -3 12 -13 28 -21 36 -8 8 -12
19 -10 25 2 7 -6 20 -17 30 -12 10 -16 16 -9 12 9 -4 8 3 -2 21 -8 15 -12 31
-9 36 3 4 0 8 -5 8 -6 0 -10 3 -10 8 3 18 -2 33 -9 28 -5 -3 -8 10 -7 29 0 19
-3 31 -9 28 -5 -4 -7 1 -3 10 3 10 2 17 -3 17 -5 0 -7 7 -4 15 4 8 1 15 -5 15
-6 0 -11 5 -11 11 0 5 5 7 11 4 7 -5 7 -2 0 11 -16 32 -23 57 -27 99 -6 80 -9
100 -17 112 -4 6 -3 15 3 18 8 5 8 11 0 20 -6 7 -7 16 -2 19 5 3 7 23 5 46 -2
23 0 39 5 36 4 -2 8 3 9 12 3 43 8 62 15 62 4 0 7 3 6 8 -4 15 47 92 62 92 13
0 13 1 0 10 -12 8 -12 10 -1 10 16 0 67 51 63 63 -1 5 2 6 7 2 6 -3 15 4 21
16 7 11 14 18 17 15 3 -3 14 4 24 16 11 11 19 18 19 14 0 -4 10 4 23 18 12 14
24 21 25 16 2 -6 8 -10 13 -10z m559 -25 c7 -9 8 -15 2 -15 -5 0 -12 7 -16 15
-3 8 -4 15 -2 15 2 0 9 -7 16 -15z m-2885 -609 c11 0 25 -2 30 -5 6 -3 30 -6
55 -6 25 -1 51 -5 58 -9 11 -6 275 -12 295 -6 4 1 12 4 17 5 6 1 11 4 13 5 1
1 13 3 27 4 14 1 31 6 39 10 10 6 12 5 7 -2 -4 -7 -2 -12 3 -12 6 0 11 4 11 9
0 5 11 8 25 6 14 -1 25 2 25 7 0 5 6 6 13 1 16 -10 39 -10 55 1 8 5 12 4 12
-4 0 -7 6 -10 14 -7 8 3 17 3 20 -1 4 -3 21 -6 39 -7 17 0 38 -4 45 -8 6 -5
17 -5 22 -2 6 3 13 0 16 -9 3 -9 18 -14 37 -14 17 1 33 -4 35 -10 2 -7 10 -12
19 -12 8 0 21 -7 30 -15 8 -8 19 -13 24 -10 5 4 9 2 9 -3 0 -5 9 -12 21 -15
12 -3 18 -10 14 -17 -3 -6 -3 -10 2 -9 16 4 43 -13 36 -24 -3 -5 -1 -7 5 -3 6
3 17 0 25 -8 8 -8 18 -12 22 -8 4 4 6 3 5 -3 -5 -24 1 -34 17 -28 9 4 14 2 11
-3 -6 -11 37 -55 46 -47 3 4 6 -1 6 -11 0 -9 5 -14 10 -11 6 3 10 1 10 -5 0
-6 14 -24 30 -40 17 -17 28 -30 25 -30 -3 0 6 -11 20 -25 14 -14 25 -30 25
-36 0 -6 5 -7 10 -4 9 5 15 -10 8 -18 -2 -1 12 -17 30 -35 17 -17 32 -36 32
-41 0 -5 3 -11 8 -13 4 -1 24 -22 44 -45 20 -23 39 -39 42 -35 6 5 10 -15 6
-33 -1 -5 1 -7 5 -3 4 4 29 -15 55 -42 27 -26 51 -46 53 -43 3 2 8 -5 12 -16
3 -12 12 -21 20 -21 7 0 15 -7 19 -15 3 -8 12 -15 20 -15 8 0 18 -5 22 -12 5
-7 3 -8 -6 -3 -9 5 -11 4 -6 -4 4 -6 11 -9 16 -6 5 3 15 -1 23 -9 8 -8 17 -12
21 -9 3 4 6 1 6 -5 0 -7 7 -12 15 -12 8 0 23 -8 33 -17 9 -10 24 -18 32 -18 8
0 21 -5 28 -12 8 -7 18 -11 23 -8 5 4 9 1 9 -4 0 -6 9 -11 20 -11 11 0 20 -4
20 -8 0 -4 12 -9 27 -10 15 -1 29 -5 32 -10 7 -8 29 -15 54 -16 9 0 17 -3 17
-6 0 -3 27 -12 60 -19 33 -8 60 -19 60 -25 0 -7 3 -7 8 1 5 7 13 9 21 3 8 -4
20 -6 28 -3 7 3 13 0 13 -6 0 -6 7 -8 15 -5 8 4 22 1 30 -6 11 -9 15 -9 15 -1
0 7 5 9 13 4 17 -10 34 -13 92 -16 28 -1 55 -5 60 -8 6 -3 29 -5 53 -5 23 1
42 -3 42 -8 0 -4 6 -3 13 3 8 6 17 8 20 4 4 -3 32 -5 64 -4 33 1 59 -3 63 -10
9 -14 1 -49 -12 -49 -5 0 -7 -4 -3 -9 3 -5 1 -12 -4 -16 -5 -3 -8 -14 -6 -25
2 -11 -1 -19 -7 -17 -6 1 -12 -9 -13 -21 -1 -13 -7 -27 -14 -32 -7 -4 -13 -11
-13 -16 -1 -18 -21 -54 -30 -54 -5 0 -7 -4 -3 -9 3 -5 -1 -16 -9 -24 -8 -8
-12 -17 -9 -21 4 -3 1 -6 -6 -6 -7 0 -9 -4 -6 -10 3 -5 2 -10 -3 -10 -5 0 -15
-11 -22 -25 -7 -13 -18 -22 -23 -18 -6 3 -7 1 -3 -5 3 -6 2 -13 -4 -17 -6 -4
-7 -12 -4 -18 4 -7 4 -9 0 -5 -8 7 -46 -21 -46 -34 0 -15 -34 -47 -43 -41 -6
3 -7 1 -3 -5 4 -7 2 -12 -4 -12 -6 0 -9 -4 -6 -8 2 -4 -4 -14 -16 -21 -15 -9
-18 -10 -13 0 6 8 4 10 -4 5 -7 -5 -10 -14 -7 -22 4 -9 -2 -14 -15 -14 -11 0
-17 -5 -14 -10 3 -6 -2 -13 -12 -17 -10 -4 -26 -16 -36 -28 -10 -11 -15 -13
-11 -5 4 8 -3 5 -15 -7 -12 -13 -26 -23 -32 -23 -6 0 -7 -4 -4 -10 6 -9 -8
-14 -28 -11 -4 1 -10 -6 -13 -14 -3 -8 -10 -12 -15 -9 -5 3 -9 0 -9 -6 0 -6
-4 -8 -10 -5 -5 3 -10 1 -10 -5 0 -6 -4 -8 -10 -5 -5 3 -10 1 -10 -4 0 -6 -9
-11 -19 -11 -11 0 -26 -7 -35 -15 -8 -8 -22 -15 -30 -15 -9 0 -16 -5 -16 -10
0 -6 -3 -9 -7 -9 -5 1 -10 1 -13 -1 -3 -1 -16 -4 -30 -6 -13 -2 -27 -9 -31
-16 -4 -6 -12 -7 -18 -4 -6 4 -11 2 -11 -5 0 -9 -3 -9 -14 0 -11 10 -16 9 -24
-5 -6 -11 -18 -15 -35 -12 -17 3 -24 1 -20 -5 4 -6 0 -8 -10 -4 -10 4 -17 1
-17 -6 0 -8 -4 -6 -10 3 -6 10 -10 11 -10 3 0 -7 -10 -13 -22 -13 -13 0 -33
-1 -46 -1 -15 0 -20 -4 -15 -12 4 -8 1 -8 -9 1 -12 9 -18 10 -23 2 -5 -8 -11
-8 -19 -1 -7 6 -16 8 -20 4 -11 -11 -48 -14 -41 -3 3 5 1 10 -4 10 -6 0 -11
-4 -11 -9 0 -5 -9 -11 -20 -14 -11 -3 -18 -1 -15 4 4 5 -8 7 -25 5 -17 -2 -33
1 -36 6 -3 5 -12 4 -20 -3 -10 -8 -14 -8 -14 0 0 7 -8 8 -26 1 -16 -6 -23 -6
-19 0 3 5 -9 8 -30 6 -24 -2 -39 3 -45 13 -7 12 -9 13 -10 2 0 -11 -3 -11 -17
0 -14 12 -15 12 -9 0 5 -8 -3 -6 -20 5 -15 11 -25 14 -21 7 5 -7 0 -9 -13 -6
-11 3 -20 10 -20 17 0 6 -5 4 -10 -4 -7 -11 -10 -11 -10 -2 0 7 -4 11 -8 8 -5
-3 -21 1 -36 9 -18 10 -24 10 -19 2 5 -9 3 -9 -8 -1 -8 6 -27 14 -42 18 -18 4
-25 11 -21 19 5 9 4 9 -6 0 -11 -10 -16 -9 -27 5 -8 9 -11 11 -8 4 6 -11 3
-11 -16 0 -13 7 -27 17 -30 21 -3 5 -9 8 -13 8 -20 -3 -26 0 -20 12 5 8 2 8
-9 -2 -15 -11 -17 -11 -17 2 0 10 -8 14 -25 13 -13 -2 -22 0 -20 5 3 4 -8 13
-25 21 -16 7 -30 17 -30 21 0 5 -4 5 -10 2 -5 -3 -10 -1 -10 6 0 7 -3 10 -6 6
-4 -3 -13 1 -21 9 -8 8 -19 11 -25 8 -7 -4 -8 -2 -4 4 4 7 1 12 -8 12 -9 0
-16 5 -16 11 0 5 -4 7 -10 4 -5 -3 -10 1 -10 9 0 9 -9 16 -20 16 -11 0 -20 7
-20 15 0 8 -6 12 -14 9 -8 -3 -19 3 -26 15 -6 12 -15 21 -21 21 -6 0 -24 14
-40 31 -16 17 -29 27 -29 23 0 -5 -9 4 -19 19 -13 20 -20 25 -24 15 -4 -9 -6
-7 -6 5 -1 9 -5 17 -11 17 -5 0 -10 7 -10 15 0 8 -3 14 -8 12 -9 -3 -52 40
-52 52 0 5 -9 12 -19 16 -13 4 -18 12 -14 22 4 11 2 14 -5 9 -7 -4 -12 -1 -12
8 0 10 -6 13 -17 9 -10 -4 -14 -2 -10 4 4 6 0 16 -8 23 -8 7 -15 16 -15 21 0
5 -13 23 -30 41 -16 17 -30 37 -30 44 0 8 -4 14 -9 14 -5 0 -14 13 -21 30 -7
16 -17 27 -23 23 -6 -4 -8 0 -4 10 3 9 0 18 -9 21 -8 3 -14 15 -14 26 0 11 -4
20 -10 20 -5 0 -10 7 -10 16 0 8 -4 12 -10 9 -6 -3 -7 1 -4 9 3 9 1 16 -4 16
-6 0 -9 9 -7 20 2 11 0 18 -6 15 -8 -6 -13 8 -10 28 0 4 -4 7 -10 7 -6 0 -8 7
-5 16 4 9 2 13 -5 8 -7 -4 -10 -1 -7 7 3 8 -4 21 -14 31 -12 10 -15 19 -8 23
12 8 14 26 1 22 -5 -1 -9 1 -10 6 0 4 -8 21 -16 37 -9 17 -13 35 -10 40 3 6 2
10 -3 10 -6 0 -13 7 -16 16 -4 10 -2 13 7 8 9 -6 9 -5 0 8 -7 8 -10 18 -6 21
3 4 0 7 -7 7 -7 0 -10 3 -7 7 4 3 2 12 -4 20 -9 10 -8 13 0 13 8 0 6 7 -5 17
-11 12 -13 18 -5 21 8 3 6 9 -6 18 -13 9 -14 13 -4 14 11 0 11 3 0 16 -16 20
-19 54 -5 54 6 0 5 4 -3 9 -7 5 -10 14 -7 20 4 6 0 11 -9 11 -15 0 -15 1 -1
16 17 17 20 25 9 23 -20 -3 -24 2 -13 16 7 8 8 15 3 15 -5 0 -9 26 -8 58 0 31
-3 65 -8 75 -5 11 -3 17 5 17 9 0 9 3 1 11 -8 8 -8 20 -2 36 5 13 6 22 1 20
-9 -6 -8 46 2 61 4 7 2 12 -6 12 -9 0 -9 3 -2 8 6 4 10 21 9 37 -2 31 15 70
25 57 3 -4 14 -7 25 -6z"/>
</g>
</svg>
