<svg display="none" xmlns="http://www.w3.org/2000/svg">

		<!-- Menu Burger    	-->
		<symbol id='burger-menu' viewBox="0 0 100 80">
				<rect width="100" height="16" rx="6"></rect>
				<rect y="30" width="100" height="16" rx="6"></rect>
				<rect y="60" width="100" height="16" rx="6"></rect>
		</symbol>

    <!-- hero slider arrow -->

    <symbol id="hero-arrow-left" viewBox="0 0 40 73">
        <path d="M038.026,72.979 L0.005,36.498 L38.026,0.018 L39.995,2.022 L04.066,36.498 L39.995,70.977 L38.026,72.979 Z"/>
    </symbol>

		    <symbol id="hero-arrow-right" viewBox="0 0 40 73">
        <g transform="rotate(180 20 36)">
					<path d="M038.026,72.979 L0.005,36.498 L38.026,0.018 L39.995,2.022 L04.066,36.498 L39.995,70.977 L38.026,72.979 Z"/>
				</g>
    </symbol>

    <!-- arrow -->

    <symbol id="arrow" viewBox="0 0 24 24">
        <path d="M5 3l3.057-3 11.943 12-11.943 12-3.057-3 9-9z"/>
    </symbol>

    <!-- logo -->
    <symbol id="logo" viewBox="0 0 64 56">
        <path fill-rule="evenodd" d="M52.873,55.128 L58.125,45.939 L63.377,55.128 L52.873,55.128 ZM46.303,45.172 L56.811,45.172 L51.557,54.359 L46.303,45.172 ZM51.557,34.451 L56.811,43.641 L46.303,43.641 L51.557,34.451 ZM39.738,33.686 L50.243,33.686 L44.990,42.874 L39.738,33.686 ZM44.990,22.967 L50.243,32.154 L39.738,32.154 L44.990,22.967 ZM33.168,22.202 L43.676,22.202 L38.422,31.390 L33.168,22.202 ZM38.422,11.480 L43.676,20.671 L33.168,20.671 L38.422,11.480 ZM26.600,10.713 L37.108,10.713 L31.854,19.905 L26.600,10.713 ZM31.854,-0.006 L37.108,9.184 L26.600,9.184 L31.854,-0.006 ZM20.032,20.671 L25.286,11.480 L30.540,20.671 L20.032,20.671 ZM13.465,32.154 L18.718,22.967 L23.971,32.154 L13.465,32.154 ZM6.897,43.641 L12.151,34.451 L17.404,43.641 L6.897,43.641 ZM0.331,55.128 L5.582,45.939 L10.836,55.128 L0.331,55.128 ZM17.404,45.172 L12.151,54.359 L6.897,45.172 L17.404,45.172 ZM23.971,33.686 L18.718,42.874 L13.465,33.686 L23.971,33.686 ZM30.540,22.202 L25.286,31.390 L20.032,22.202 L30.540,22.202 ZM37.108,55.128 L26.600,55.128 L31.854,45.939 L37.108,55.128 ZM43.676,45.172 L38.422,54.359 L33.168,45.172 L43.676,45.172 ZM50.243,55.128 L39.738,55.128 L44.990,45.939 L50.243,55.128 Z"/>
    </symbol>

    <!-- header__icon-links -->
    <symbol id="cart" viewBox="0 0 18 24">
        <path fill-rule="evenodd" d="M14.995,2.999 L13.496,2.999 C13.496,1.342 11.483,-0.002 8.999,-0.002 C6.514,-0.002 4.501,1.342 4.501,2.999 L3.002,2.999 C1.346,2.999 0.003,4.341 0.003,5.997 L0.003,20.995 C0.003,22.651 1.346,23.994 3.002,23.994 L14.995,23.994 C16.652,23.994 17.994,22.651 17.994,20.995 L17.994,5.997 C17.994,4.341 16.652,2.999 14.995,2.999 ZM8.999,1.498 C10.655,1.498 11.997,1.962 11.997,2.999 L6.000,2.999 C6.000,1.962 7.343,1.498 8.999,1.498 ZM16.495,20.995 C16.495,21.823 15.824,22.494 14.995,22.494 L3.002,22.494 C2.174,22.494 1.502,21.823 1.502,20.995 L1.502,19.495 L16.495,19.495 L16.495,20.995 ZM16.495,17.995 L1.502,17.995 L1.502,5.997 C1.502,5.169 2.174,4.497 3.002,4.497 L4.501,4.497 L4.501,8.998 L6.000,8.998 L6.000,4.497 L11.997,4.497 L11.997,8.998 L13.496,8.998 L13.496,4.497 L14.995,4.497 C15.824,4.497 16.495,5.169 16.495,5.997 L16.495,17.995 Z"/>
    </symbol>

    <symbol id="search" viewBox="0 0 24 24">
        <path fill-rule="evenodd" d="M23.762,22.681 L17.569,16.586 C19.190,14.825 20.187,12.494 20.187,9.929 C20.186,4.443 15.668,-0.002 10.093,-0.002 C4.519,-0.002 0.001,4.443 0.001,9.929 C0.001,15.416 4.519,19.862 10.093,19.862 C12.502,19.862 14.711,19.028 16.446,17.644 L22.663,23.763 C22.966,24.062 23.458,24.062 23.761,23.763 C24.065,23.464 24.065,22.979 23.762,22.681 ZM10.093,18.334 C5.377,18.334 1.553,14.572 1.553,9.929 C1.553,5.288 5.377,1.525 10.093,1.525 C14.810,1.525 18.633,5.288 18.633,9.929 C18.633,14.572 14.810,18.334 10.093,18.334 Z"/>
    </symbol>

    <!-- advantages -->
    <symbol id="pencil" viewBox="0 0 49 49">
        <path fill-rule="evenodd" d="M47.668,19.717 L33.402,33.985 L0.534,48.463 L15.011,15.591 L29.279,1.327 C29.898,0.706 30.904,0.706 31.527,1.327 C32.148,1.950 32.148,2.955 31.527,3.576 L17.683,17.422 L9.107,36.888 L12.106,39.887 L31.573,31.314 L45.420,17.470 C46.039,16.847 47.043,16.847 47.668,17.470 C48.289,18.090 48.289,19.100 47.668,19.717 ZM29.745,28.466 C29.434,28.773 29.028,28.931 28.620,28.931 C28.211,28.931 27.805,28.773 27.495,28.466 C26.875,27.843 26.875,26.836 27.495,26.216 L40.827,12.885 C41.450,12.260 42.454,12.260 43.077,12.885 C43.700,13.505 43.700,14.510 43.077,15.134 L29.745,28.466 ZM26.265,24.985 C25.955,25.293 25.549,25.450 25.140,25.450 C24.734,25.450 24.326,25.293 24.015,24.985 C23.394,24.364 23.394,23.354 24.015,22.735 L37.348,9.403 C37.970,8.780 38.974,8.780 39.598,9.403 C40.219,10.023 40.219,11.030 39.598,11.653 L26.265,24.985 ZM22.784,21.502 C22.473,21.814 22.065,21.968 21.659,21.968 C21.253,21.968 20.845,21.814 20.534,21.502 C19.914,20.883 19.914,19.873 20.534,19.253 L33.867,5.922 C34.490,5.298 35.495,5.298 36.117,5.922 C36.739,6.542 36.739,7.548 36.117,8.172 L22.784,21.502 Z"/>
    </symbol>

    <symbol id="sheets" viewBox="0 0 24 24">
				<path d="M22.485,10.975,12,17.267,1.515,10.975A1,1,0,1,0,.486,12.69l11,6.6a1,1,0,0,0,1.03,0l11-6.6a1,1,0,1,0-1.029-1.715Z"/><path d="M22.485,15.543,12,21.834,1.515,15.543A1,1,0,1,0,.486,17.258l11,6.6a1,1,0,0,0,1.03,0l11-6.6a1,1,0,1,0-1.029-1.715Z"/><path d="M.485,8.357l9.984,5.991a2.97,2.97,0,0,0,3.062,0l9.984-5.991a1,1,0,0,0,0-1.714L13.531.652a2.973,2.973,0,0,0-3.062,0L.485,6.643a1,1,0,0,0,0,1.714Z"/>
    </symbol>

    <symbol id="options" viewBox="0 0 44 44">
        <path fill-rule="evenodd" d="M43.927,21.850 C43.927,20.230 42.761,18.501 41.322,17.993 C39.882,17.483 38.487,16.235 38.081,15.251 C37.675,14.269 37.781,12.396 38.436,11.017 C39.092,9.638 38.695,7.591 37.550,6.443 C36.404,5.297 34.357,4.902 32.977,5.558 C31.597,6.214 29.727,6.322 28.746,5.915 C27.765,5.510 26.517,4.112 26.005,2.673 C25.493,1.234 23.764,0.067 22.144,0.067 C20.523,0.067 18.794,1.234 18.282,2.673 C17.770,4.112 16.522,5.509 15.541,5.915 C14.560,6.322 12.690,6.214 11.310,5.558 C9.932,4.902 7.883,5.297 6.737,6.443 C5.592,7.591 5.195,9.638 5.851,11.017 C6.507,12.397 6.611,14.266 6.204,15.250 C5.796,16.232 4.405,17.483 2.966,17.993 C1.526,18.501 0.360,20.230 0.360,21.850 C0.360,23.471 1.526,25.199 2.966,25.711 C4.405,26.223 5.798,27.474 6.206,28.454 C6.614,29.434 6.507,31.304 5.851,32.683 C5.195,34.062 5.592,36.110 6.737,37.255 C7.883,38.402 9.930,38.799 11.310,38.142 C12.690,37.486 14.560,37.381 15.541,37.789 C16.523,38.196 17.770,39.594 18.282,41.032 C18.794,42.468 20.523,43.633 22.144,43.633 C23.764,43.633 25.493,42.468 26.005,41.032 C26.517,39.594 27.763,38.196 28.744,37.786 C29.725,37.378 31.597,37.486 32.977,38.142 C34.356,38.799 36.404,38.402 37.550,37.255 C38.695,36.110 39.092,34.062 38.436,32.683 C37.781,31.304 37.673,29.433 38.079,28.453 C38.485,27.472 39.882,26.223 41.322,25.711 C42.761,25.199 43.927,23.471 43.927,21.850 ZM22.144,29.842 C17.724,29.842 14.150,26.270 14.150,21.859 C14.150,17.440 17.724,13.865 22.144,13.865 C26.554,13.865 30.128,17.440 30.128,21.859 C30.128,26.270 26.554,29.842 22.144,29.842 Z"/>
    </symbol>

    <symbol id="folder" viewBox="0 0 52 36">
        <path fill-rule="evenodd" d="M51.411,14.341 L41.921,33.763 C41.326,34.984 39.729,35.984 38.378,35.984 L3.080,35.984 C1.730,35.984 1.112,34.982 1.711,33.763 L11.203,14.341 C11.796,13.118 13.392,12.115 14.742,12.115 L50.040,12.115 C51.394,12.115 52.009,13.118 51.411,14.341 ZM9.000,13.245 L0.738,30.147 L0.738,7.983 C0.738,6.619 1.843,5.501 3.196,5.502 L14.012,5.502 L14.012,4.058 C14.012,3.063 14.394,2.135 15.094,1.430 C15.793,0.723 16.717,0.335 17.701,0.335 L23.991,0.335 C26.020,0.335 27.675,2.002 27.675,4.058 L27.675,5.501 L38.491,5.501 C39.842,5.501 40.949,6.619 40.949,7.983 L40.949,9.637 L14.742,9.637 C12.475,9.637 10.002,11.187 9.000,13.245 ZM16.470,5.502 L25.217,5.502 L25.217,4.058 C25.217,3.370 24.667,2.815 23.989,2.815 L17.698,2.815 C17.372,2.815 17.063,2.945 16.832,3.183 C16.602,3.417 16.470,3.730 16.470,4.058 L16.470,5.502 Z"/>
    </symbol>

    <!-- projects -->
    <symbol id="link" viewBox="0 0 24 24">
				<path d="M7.896,16.104c-.586-.585-.586-1.536,0-2.121,.586-.586,1.535-.586,2.121,0,1.326,1.326,3.64,1.327,4.966,0l4.989-4.989c1.369-1.369,1.369-3.597,0-4.966s-3.597-1.369-4.966,0c-.586,.586-1.535,.586-2.121,0-.586-.585-.586-1.536,0-2.121,2.538-2.539,6.67-2.539,9.208,0,2.539,2.539,2.539,6.669,0,9.208l-4.989,4.989c-1.27,1.27-2.937,1.904-4.604,1.904s-3.335-.635-4.604-1.904Zm-1.384,7.893c1.667,0,3.334-.635,4.604-1.904,.586-.585,.586-1.536,0-2.121-.586-.586-1.535-.586-2.121,0-1.37,1.37-3.598,1.369-4.966,0-1.369-1.369-1.369-3.597,0-4.966l4.961-4.961c1.37-1.37,3.598-1.37,4.966,0,.586,.586,1.535,.586,2.121,0,.586-.585,.586-1.536,0-2.121-2.539-2.539-6.669-2.539-9.208,0L1.907,12.885c-2.539,2.539-2.539,6.669,0,9.208,1.27,1.27,2.937,1.904,4.604,1.904Z"/>
    </symbol>

    <symbol id="lupa" viewBox="0 0 100 100">
				<path d="M68.73,31.13c-1.04,0-2.05-0.54-2.6-1.5C61.07,20.84,54.5,19,54.23,18.93c-1.59-0.42-2.56-2.06-2.15-3.65c0.41-1.6,2.01-2.56,3.62-2.17c0.37,0.09,9.23,2.4,15.63,13.52c0.83,1.44,0.33,3.27-1.1,4.1C69.76,31,69.24,31.13,68.73,31.13z"/><path d="M42.49,81.51C19.06,81.51,0,63.23,0,40.76S19.06,0,42.49,0s42.49,18.28,42.49,40.76S65.92,81.51,42.49,81.51z M42.49,6.04c-20.12,0-36.5,15.58-36.5,34.72s16.37,34.72,36.5,34.72c20.12,0,36.5-15.58,36.5-34.72S62.61,6.04,42.49,6.04z"/><path d="M99.12,94.85L73.27,68.81c-1.41,1.42-2.93,2.75-4.54,3.97l26.15,26.34C95.47,99.71,96.24,100,97,100c0.77,0,1.53-0.29,2.12-0.88C100.29,97.94,100.29,96.03,99.12,94.85z"/>
    </symbol>

    <!-- presentation -->

    <symbol id="video" viewBox="0 0 70 70">
        <path fill-rule="evenodd" d="M31.253,18.653 L48.967,33.415 C49.437,33.807 49.709,34.386 49.709,34.997 C49.709,35.609 49.437,36.188 48.967,36.580 L31.253,51.343 C30.876,51.657 30.407,51.820 29.934,51.820 C29.638,51.820 29.339,51.755 29.060,51.626 C28.337,51.287 27.874,50.559 27.874,49.760 L27.874,20.235 C27.874,19.436 28.337,18.708 29.060,18.370 C29.783,18.030 30.640,18.141 31.253,18.653 ZM31.994,45.362 L44.431,34.997 L31.994,24.633 L31.994,45.362 ZM59.759,59.759 C53.033,66.484 44.026,69.998 34.937,69.998 C29.072,69.999 23.173,68.536 17.831,65.528 C16.839,64.970 16.488,63.713 17.046,62.722 C17.604,61.731 18.860,61.379 19.852,61.938 C31.870,68.703 47.082,66.611 56.845,56.845 C68.892,44.798 68.892,25.197 56.845,13.150 C44.798,1.101 25.196,1.102 13.150,13.150 C1.104,25.197 1.104,44.798 13.150,56.845 C13.955,57.650 13.955,58.954 13.150,59.759 C12.347,60.563 11.042,60.563 10.237,59.759 C-3.416,46.105 -3.416,23.890 10.237,10.236 C23.891,-3.416 46.104,-3.417 59.759,10.236 C73.412,23.890 73.412,46.105 59.759,59.759 Z"/>
    </symbol>

    <!-- statistics -->
    <symbol id="clients" viewBox="0 0 44 44">
        <path fill-rule="evenodd" d="M19.937,30.250 C25.625,30.250 30.250,24.621 30.250,17.703 C30.250,10.784 25.625,5.156 19.937,5.156 C17.124,5.156 14.498,6.502 12.543,8.944 C10.660,11.298 9.624,14.408 9.625,17.703 C9.625,24.622 14.250,30.250 19.937,30.250 ZM19.937,7.906 C24.107,7.906 27.500,12.300 27.500,17.703 C27.500,23.106 24.107,27.500 19.937,27.500 C15.768,27.500 12.375,23.106 12.372,17.703 C12.372,12.300 15.765,7.906 19.937,7.906 ZM28.598,28.875 C27.838,28.875 27.223,29.490 27.223,30.250 C27.223,31.010 27.838,31.625 28.598,31.625 C33.299,31.625 37.125,35.450 37.125,40.153 C37.125,40.755 36.631,41.250 36.024,41.250 L3.848,41.250 C3.243,41.250 2.750,40.758 2.750,40.153 C2.750,35.450 6.574,31.625 11.274,31.625 C12.034,31.625 12.649,31.010 12.649,30.250 C12.649,29.490 12.034,28.875 11.274,28.875 C5.057,28.875 -0.000,33.934 -0.000,40.153 C-0.000,42.274 1.727,44.000 3.848,44.000 L36.024,44.000 C38.147,44.000 39.875,42.274 39.875,40.153 C39.875,33.934 34.815,28.875 28.598,28.875 ZM20.943,3.629 C21.927,3.045 22.976,2.751 24.062,2.751 C28.232,2.751 31.625,7.146 31.625,12.547 C31.625,13.516 31.518,14.466 31.305,15.375 C31.131,16.114 31.590,16.854 32.329,17.027 C32.435,17.054 32.539,17.064 32.644,17.064 C33.268,17.064 33.833,16.636 33.982,16.004 C34.241,14.889 34.375,13.726 34.375,12.547 C34.375,5.629 29.750,-0.000 24.062,-0.000 C22.499,-0.000 20.938,0.435 19.544,1.261 C18.889,1.647 18.674,2.491 19.060,3.144 C19.447,3.798 20.292,4.015 20.943,3.629 ZM33.000,23.375 C32.240,23.375 31.625,23.990 31.625,24.750 C31.625,25.510 32.240,26.125 33.000,26.125 C37.701,26.125 41.250,30.043 41.250,34.743 C41.250,34.899 41.220,35.053 41.156,35.191 C40.848,35.887 41.161,36.698 41.854,37.006 C42.034,37.087 42.225,37.125 42.413,37.125 C42.939,37.125 43.441,36.819 43.670,36.308 C43.888,35.814 44.000,35.288 44.000,34.740 C44.000,28.527 39.217,23.375 33.000,23.375 Z"/>
    </symbol>

    <symbol id="coffee" viewBox="0 0 48 44">
        <path fill-rule="evenodd" d="M46.043,42.749 C46.043,43.440 45.491,44.000 44.809,44.000 L1.234,44.000 C0.553,44.000 -0.000,43.440 -0.000,42.749 C-0.000,42.058 0.553,41.498 1.234,41.498 L44.809,41.498 C45.491,41.498 46.043,42.058 46.043,42.749 ZM21.769,22.213 C22.007,22.438 22.309,22.549 22.611,22.549 C22.941,22.549 23.270,22.416 23.513,22.152 C23.978,21.647 23.951,20.855 23.453,20.384 C21.337,18.382 21.790,14.314 23.608,12.014 C26.075,8.894 26.618,3.331 23.453,0.337 C22.955,-0.134 22.174,-0.107 21.709,0.398 C21.244,0.904 21.271,1.695 21.769,2.166 C23.670,3.964 23.627,7.989 21.682,10.450 C20.404,12.067 19.640,14.234 19.586,16.396 C19.526,18.759 20.302,20.825 21.769,22.213 ZM48.000,19.614 L48.000,22.014 C48.000,25.455 45.239,28.253 41.846,28.253 L39.091,28.253 C37.221,33.524 32.240,37.304 26.405,37.304 L19.639,37.304 C12.208,37.304 6.163,31.175 6.163,23.642 L6.163,11.232 C6.163,10.541 6.715,9.981 7.397,9.981 L15.312,9.981 C16.918,7.505 16.847,3.854 15.063,2.166 C14.565,1.695 14.538,0.904 15.003,0.398 C15.467,-0.107 16.248,-0.134 16.747,0.337 C19.911,3.331 19.368,8.894 16.902,12.014 C15.083,14.314 14.630,18.383 16.747,20.384 C17.245,20.855 17.272,21.647 16.807,22.152 C16.342,22.657 15.561,22.684 15.063,22.213 C13.595,20.825 12.820,18.759 12.879,16.396 C12.913,15.049 13.222,13.700 13.760,12.483 L8.630,12.483 L8.630,23.642 C8.630,29.796 13.569,34.802 19.639,34.802 L26.405,34.802 C32.475,34.802 37.413,29.796 37.413,23.642 L37.413,12.483 L28.135,12.483 C27.453,12.483 26.901,11.923 26.901,11.232 C26.901,10.541 27.453,9.981 28.135,9.981 L38.647,9.981 C39.329,9.981 39.881,10.541 39.881,11.232 L39.881,13.375 L41.846,13.375 C45.239,13.375 48.000,16.174 48.000,19.614 ZM45.532,19.614 C45.532,17.554 43.878,15.877 41.846,15.877 L39.881,15.877 L39.881,25.751 L41.846,25.751 C43.878,25.751 45.532,24.075 45.532,22.014 L45.532,19.614 Z"/>
    </symbol>

    <symbol id="comment" viewBox="0 0 44 44">
        <path fill-rule="evenodd" d="M28.873,23.374 L15.126,23.374 C14.367,23.374 13.751,23.990 13.751,24.748 C13.751,25.508 14.367,26.124 15.126,26.124 L28.873,26.124 C29.632,26.124 30.248,25.508 30.248,24.748 C30.248,23.990 29.632,23.374 28.873,23.374 ZM31.622,15.126 L12.376,15.126 C11.617,15.126 11.001,15.741 11.001,16.501 C11.001,17.259 11.617,17.875 12.376,17.875 L31.622,17.875 C32.382,17.875 32.997,17.259 32.997,16.501 C32.997,15.741 32.382,15.126 31.622,15.126 ZM21.999,0.003 C9.852,0.003 0.003,8.620 0.003,19.250 C0.003,25.325 3.227,30.733 8.252,34.261 L8.252,43.995 L17.887,38.149 C19.221,38.368 20.593,38.496 21.999,38.496 C34.148,38.496 43.995,29.879 43.995,19.250 C43.995,8.620 34.148,0.003 21.999,0.003 ZM21.999,35.747 C20.393,35.747 18.843,35.560 17.353,35.242 L10.880,39.133 L10.967,32.756 C6.005,29.772 2.753,24.839 2.753,19.250 C2.753,10.139 11.370,2.753 21.999,2.753 C32.629,2.753 41.246,10.139 41.246,19.250 C41.246,28.360 32.629,35.747 21.999,35.747 Z"/>
    </symbol>

    <symbol id="heart" viewBox="0 0 44 44">
        <path fill-rule="evenodd" d="M30.250,-0.000 C29.826,-0.000 29.403,0.026 28.982,0.064 C28.828,0.078 28.676,0.100 28.523,0.121 C28.265,0.152 28.010,0.191 27.755,0.238 C27.567,0.272 27.383,0.311 27.203,0.352 C26.992,0.400 26.783,0.456 26.573,0.514 C26.375,0.569 26.177,0.623 25.983,0.686 C25.805,0.744 25.634,0.813 25.459,0.879 C25.000,1.051 24.551,1.245 24.116,1.461 C24.030,1.503 23.940,1.542 23.856,1.588 C23.627,1.709 23.407,1.843 23.184,1.976 C23.063,2.050 22.940,2.120 22.819,2.198 C22.604,2.336 22.397,2.483 22.191,2.632 C22.129,2.677 22.063,2.718 22.000,2.764 C19.623,0.975 16.735,-0.000 13.750,-0.000 C6.168,-0.000 -0.000,6.166 -0.000,13.750 C-0.000,26.195 8.002,37.452 21.406,43.863 C21.594,43.954 21.798,44.000 22.000,44.000 C22.202,44.000 22.405,43.954 22.594,43.863 C35.997,37.452 44.000,26.195 44.000,13.750 C44.000,6.166 37.831,-0.000 30.250,-0.000 ZM22.000,41.097 C9.934,35.108 2.750,24.927 2.750,13.750 C2.750,7.684 7.685,2.750 13.750,2.750 C15.969,2.750 18.118,3.434 19.940,4.683 C17.805,7.107 16.500,10.275 16.500,13.750 C16.500,14.509 17.114,15.125 17.875,15.125 C18.636,15.125 19.250,14.509 19.250,13.750 C19.250,10.476 20.696,7.539 22.973,5.523 C23.184,5.335 23.405,5.157 23.627,4.987 C23.678,4.951 23.728,4.912 23.779,4.874 C23.998,4.715 24.222,4.562 24.452,4.420 C24.515,4.380 24.578,4.341 24.643,4.304 C24.864,4.171 25.091,4.046 25.321,3.931 C25.400,3.891 25.482,3.852 25.562,3.814 C25.783,3.710 26.005,3.611 26.232,3.521 C26.332,3.481 26.434,3.445 26.537,3.408 C26.751,3.331 26.965,3.259 27.183,3.196 C27.316,3.158 27.445,3.125 27.578,3.093 C27.775,3.044 27.970,2.993 28.171,2.953 C28.353,2.920 28.537,2.896 28.719,2.869 C28.875,2.846 29.031,2.820 29.189,2.803 C29.538,2.771 29.893,2.750 30.250,2.750 C36.315,2.750 41.250,7.684 41.250,13.750 C41.250,24.927 34.066,35.108 22.000,41.097 ZM30.250,5.500 C29.490,5.500 28.875,6.116 28.875,6.875 C28.875,7.633 29.490,8.250 30.250,8.250 C33.283,8.250 35.750,10.716 35.750,13.750 C35.750,14.509 36.365,15.125 37.125,15.125 C37.885,15.125 38.500,14.509 38.500,13.750 C38.500,9.200 34.799,5.500 30.250,5.500 Z"/>
    </symbol>

    <symbol id="bell" viewBox="0 0 54 44">
        <path fill-rule="evenodd" d="M52.310,40.611 L1.691,40.611 C0.759,40.611 0.003,41.369 0.003,42.304 C0.003,43.237 0.759,43.995 1.691,43.995 L52.310,43.995 C53.242,43.995 53.998,43.237 53.998,42.304 C53.998,41.369 53.242,40.611 52.310,40.611 ZM28.688,6.771 L28.688,3.387 L32.063,3.387 C32.994,3.387 33.750,2.629 33.750,1.695 C33.750,0.761 32.994,0.003 32.063,0.003 L21.939,0.003 C21.007,0.003 20.251,0.761 20.251,1.695 C20.251,2.629 21.007,3.387 21.939,3.387 L25.314,3.387 C25.314,3.387 25.301,6.910 25.314,6.771 C11.194,7.649 0.003,19.463 0.003,33.843 C0.003,35.217 0.003,34.601 0.003,35.535 C0.003,36.469 0.759,37.227 1.691,37.227 L52.310,37.227 C53.242,37.227 53.998,36.469 53.998,35.535 C53.998,34.601 53.998,35.324 53.998,33.843 C53.998,19.463 42.808,7.649 28.688,6.771 ZM3.378,33.843 C3.378,20.761 13.954,10.155 27.001,10.155 C40.048,10.155 50.623,20.761 50.623,33.843 L3.378,33.843 Z"/>
    </symbol>
    
</svg>